<?xml version="1.0" encoding="utf-8"?>
<!-- Generator: Adobe Illustrator 20.1.0, SVG Export Plug-In . SVG Version: 6.00 Build 0)  -->
<svg version="1.1" id="图层_1" xmlns="http://www.w3.org/2000/svg" xmlns:xlink="http://www.w3.org/1999/xlink" x="0px" y="0px"
	 viewBox="0 0 292 52" style="enable-background:new 0 0 292 52;" xml:space="preserve">
<style type="text/css">
	.st0{fill:#42B68C;}
	.st1{opacity:0.57;}
	.st2{fill:#E96280;}
	.st3{fill:none;stroke:#42B68C;stroke-width:4;stroke-miterlimit:10;}
</style>
<g>
	<path class="st0" d="M42.1,20v-1.4h-0.8v-2.4h3v2.7c0,1.1,0.5,2.2,2.2,2.2h6.9v2.2H46c-1.4,0-2.3-0.4-2.7-1.1l-1.2,1l-1.4-1.8
		L42.1,20z M41.3,9.6h2.8V12h-2.8V9.6z M41.3,12.9h2.8v2.5h-2.8V12.9z M45.3,9.9h2l-0.2,0.9h0.7V9.1h2.3v1.6h2v2h-2v0.9H53v2.1h-1.7
		V19h1.3l0.5-0.4v2.2h-3.9v-4.9h-0.4L48,20.7l-2.2-0.2l0.8-4.7h-1.6v-2.1h2.9v-0.9h-1.1l-0.1,0.6h-2L45.3,9.9z"/>
	<path class="st0" d="M55.3,11.6h0.9V9.1h2.5v2.5h0.8v2.2h-0.8v2.1l0.9-0.2v2.4l-0.9,0.2v4.9h-3.1l0.6-0.7V19l-1.1,0.3v-2.4l1.1-0.3
		v-2.7h-0.9V11.6z M60.2,16.7h2v-1.1h2.5c-0.5-0.2-1-0.4-1.5-0.7c-1,0.6-2.1,1-3.1,1.4l-1.2-1.9c1-0.3,1.9-0.6,2.6-0.9
		c-0.3-0.4-0.7-0.8-1-1.2l1.4-1.1h-2v-2h7.7c-0.4,1.9-1.4,3.3-2.6,4.4c0.9,0.4,1.9,0.6,3.1,0.8l-0.8,1.8c-1-0.1-1.9-0.3-2.6-0.5v1.1
		h2.5v2h-2.5v0.6h2.8v2h-2.8v1.9h-2.6v-1.9h-2.4v-2h2.4v-0.6h-2V16.7z M62.4,11.2c0.3,0.5,0.7,0.9,1,1.2c0.4-0.4,0.8-0.8,1.2-1.2
		H62.4z"/>
	<path class="st0" d="M69.6,9.3h11.1v14H69.6V9.3z M72.5,13.3h1.6v-1.4h2.1v1.4h1.6v1.8h-1.4l1.7,3.1v-6.7h-5.9v6.4l1.6-2.8h-1.2
		V13.3z M76.2,18v2.6h-2.1V18l-0.9,2.1l-1-0.8v1.6h5.9v-1.8L77,19.8L76.2,18z"/>
	<path class="st0" d="M83.7,12.8c0.3,0.4,0.8,0.9,1.2,1.5c0.1-0.6,0.2-1.2,0.2-1.9h-2.6v-2.2h5c0,2.6-0.4,4.7-0.9,6.5
		c0.7,1.1,1.3,2.1,1.7,2.9L86.4,21l-0.9-1.6c-0.6,1.2-1.3,2.1-1.9,2.8L82,20.6c0.7-0.8,1.4-2,2.1-3.6c-0.6-0.9-1.2-1.7-2.1-2.7
		L83.7,12.8z M88.3,15.9l-0.6,1.5l-0.9-1.5l2.1-7l2,0.6l-0.7,1.8h1.4V9.4h2.2v1.8h1.1v2.2h-1.1v1.2h1.1v1.8h-1.1v1.2h1.1v1.8h-1.1
		v1.2h1.3v2.5h-6.8V15.9z M90.5,14.7h1.1v-1.2h-1.1V14.7z M90.5,17.7h1.1v-1.2h-1.1V17.7z M90.5,20.8h1.1v-1.2h-1.1V20.8z"/>
	<path class="st0" d="M97.4,14.3l-0.3,0.5l-1.4-1.5l2.5-4.4l1.9,0.5l-0.4,0.7h2.9l-1,2.8h1.2v10.4h-2.3l0.4-0.7v-1.7h-1.8v2.4h-1.9
		V14.3z M98.8,11.9l-0.5,0.9h1.3l0.4-0.9H98.8z M99.2,16h0.4V15h-0.4V16z M99.2,18.9h0.4v-1.1h-0.4V18.9z M100.9,15V16h0.4V15H100.9
		z M101.3,18.9v-1.1h-0.4v1.1H101.3z M103,9.6h5.5v4.9h-2.4l0.4-0.6v-2.4h-0.8l-0.3,3h-2l0.3-3H103V9.6z M103.4,19h2.1v-1h-0.7
		l-0.1,0.7h-1.6l0.7-3.6h1.5l-0.2,1.2h0.4v-1.5h2.2v1.5h1v1.8h-1v1h1.2v2h-1.2v2.2h-2.2V21h-2.1V19z"/>
	<path class="st0" d="M110.4,11.6h2.1V9h2.4v2.6h1.9v2.1h-1.9v1.2l1.3-1l0.5,0.9l2-6l2.1,0.4l-0.9,2.4h3v2.1h-0.6
		c-0.2,2.2-0.7,3.9-1.4,5.4c0.6,0.9,1.3,1.8,2.1,2.5l-1.5,1.8c-0.5-0.6-1.2-1.3-1.8-2.3c-0.6,0.8-1.2,1.6-1.9,2.4l-1.7-1.5
		c0.9-1,1.8-2,2.4-3.2c-0.3-0.6-0.5-1.3-0.6-2l-0.4,1.1l-1.1-1.6l-1.2,0.9l2.2,3l-1.4,1.7l-1.2-1.7v3.1H112l0.5-0.7v-2.6l-1.3,1.9
		l-1.6-1.4l2.9-4v-0.7l-1.1,1.5l-1.7-1.3l1.3-1.7l1.5,1.1v-1.5h-2.1V11.6z M115.3,9.3h1.4v1.8h-1.4V9.3z M120.2,13.8h-1l0,0.1
		c0.1,0.9,0.3,1.7,0.6,2.5C119.9,15.6,120.1,14.7,120.2,13.8z"/>
	<path class="st0" d="M123.8,17.6c1.3-0.4,2.2-0.7,2.9-1h-2.4v-1.7h4.7v-1.2h2.8v1.2h1.4v-0.8h1.9v0.8h1.3v1.7h-2.3
		c1.4,0.6,2.9,1,2.9,1l-0.9,1.8l-0.8-0.2v4.1h-4.7v-4.7h3c-2.2-0.8-3.3-1.4-3.3-1.4c-0.9,0.4-2.2,0.9-3.4,1.4h3.1v4.7h-4.7v-4.1
		l-0.7,0.2L123.8,17.6z M125.2,9.3h4.8v4.2h-4.8V9.3z M128.1,11.8v-0.9H127v0.9H128.1z M128.1,21.3v-0.7h-0.8v0.7H128.1z M130.8,9.3
		h4.8v4.2h-4.8V9.3z M133.4,21.3v-0.7h-0.8v0.7H133.4z M133.8,11.8v-0.9h-1.1v0.9H133.8z"/>
</g>
<g class="st1">
	<path class="st0" d="M44.5,26.4c1.8,0,3.2,1.2,3.2,3.1s-1.4,3.1-3.2,3.1s-3.2-1.2-3.2-3.1S42.7,26.4,44.5,26.4z M44.5,28
		c-0.9,0-1.4,0.7-1.4,1.5s0.6,1.5,1.4,1.5s1.4-0.7,1.4-1.5S45.4,28,44.5,28z"/>
	<path class="st0" d="M48.3,34.1v-5.9h1.6v0.5c0.3-0.4,0.8-0.6,1.2-0.6c1.1,0,1.9,0.8,1.9,2.2c0,1.5-0.8,2.3-1.9,2.3
		c-0.4,0-0.9-0.2-1.2-0.6v2.1H48.3z M50.6,29.4c-0.2,0-0.5,0.1-0.7,0.3v1.1c0.1,0.2,0.5,0.3,0.7,0.3c0.4,0,0.8-0.3,0.8-0.8
		C51.4,29.8,51,29.4,50.6,29.4z"/>
	<path class="st0" d="M53.9,31.2v-1.7h-0.7v-1.4h0.7V27h1.6v1.2h0.9v1.4h-0.9v1.2c0,0.2,0.1,0.4,0.4,0.4c0.1,0,0.3,0,0.3-0.1
		l0.3,1.2c-0.2,0.2-0.5,0.3-1.1,0.3C54.5,32.5,53.9,32.1,53.9,31.2z"/>
	<path class="st0" d="M56.9,26.9c0-0.5,0.4-0.9,0.9-0.9s0.9,0.4,0.9,0.9c0,0.5-0.4,0.9-0.9,0.9S56.9,27.4,56.9,26.9z M57,28.1h1.6
		v4.3H57V28.1z"/>
	<path class="st0" d="M59.2,30.3c0-1.2,0.9-2.2,2.4-2.2c1.5,0,2.4,1,2.4,2.2c0,1.2-0.9,2.3-2.4,2.3C60.1,32.5,59.2,31.5,59.2,30.3z
		 M62.4,30.3c0-0.5-0.3-0.8-0.8-0.8c-0.5,0-0.8,0.4-0.8,0.8c0,0.5,0.3,0.8,0.8,0.8C62.1,31.1,62.4,30.8,62.4,30.3z"/>
	<path class="st0" d="M67.5,30.1c0-0.4-0.2-0.6-0.6-0.6c-0.4,0-0.5,0.2-0.7,0.3v2.6h-1.6v-4.3h1.6v0.5c0.2-0.3,0.7-0.6,1.5-0.6
		c1,0,1.4,0.6,1.4,1.3v3h-1.6V30.1z"/>
	<path class="st0" d="M70,26.5h4.5V28h-2.7v0.7h2.6v1.5h-2.6v2.2H70V26.5z"/>
	<path class="st0" d="M74.9,30.3c0-1.2,0.9-2.2,2.4-2.2c1.5,0,2.4,1,2.4,2.2c0,1.2-0.9,2.3-2.4,2.3C75.8,32.5,74.9,31.5,74.9,30.3z
		 M78.1,30.3c0-0.5-0.3-0.8-0.8-0.8c-0.5,0-0.8,0.4-0.8,0.8c0,0.5,0.3,0.8,0.8,0.8C77.8,31.1,78.1,30.8,78.1,30.3z"/>
	<path class="st0" d="M80.3,28.1h1.6v0.5c0.3-0.3,0.8-0.6,1.3-0.6v1.5c-0.1,0-0.2,0-0.4,0c-0.3,0-0.8,0.1-0.9,0.3v2.6h-1.6V28.1z"/>
	<path class="st0" d="M83.8,30.6c0.5,0,0.9,0.4,0.9,0.9c0,0.5-0.4,0.9-0.9,0.9s-0.9-0.4-0.9-0.9C82.9,31.1,83.3,30.6,83.8,30.6z"/>
	<path class="st2" d="M91,29.9c0-0.3-0.1-0.5-0.5-0.5c-0.4,0-0.5,0.2-0.7,0.3v2.6h-1.6v-2.5c0-0.3-0.1-0.5-0.5-0.5
		c-0.3,0-0.5,0.2-0.6,0.3v2.6h-1.6v-4.3h1.6v0.5c0.2-0.2,0.7-0.6,1.4-0.6c0.6,0,1,0.2,1.2,0.8c0.2-0.4,0.8-0.8,1.5-0.8
		c0.8,0,1.3,0.4,1.3,1.3v3.1H91V29.9z"/>
	<path class="st2" d="M95.5,28c1.3,0,2.2,0.9,2.2,2.4v0.3h-2.9c0.1,0.3,0.4,0.5,0.9,0.5c0.4,0,0.8-0.1,1-0.3l0.7,1
		c-0.4,0.4-1.2,0.5-1.8,0.5c-1.3,0-2.4-0.8-2.4-2.3C93.2,29,94.1,28,95.5,28z M94.8,29.8h1.4c0-0.2-0.2-0.5-0.7-0.5
		C95,29.3,94.9,29.6,94.8,29.8z"/>
</g>
<polygon class="st3" points="9.3,12 29.8,11.6 29.8,31.4 9.3,31.4 "/>
<g>
	<path class="st2" d="M17.6,34.4c0,0-2.5-3.1-4.8-5.2c-2.3-2.1-7.1-4.6-7.1-4.6l2.2-3.7c0.2,0.1,2.3,1.3,5.1,3.4
		c2.6,2,4.6,4.2,5.7,5.6c1.2-2.3,3.1-5.8,6.2-10.4c5.4-8.1,10.4-11.9,10.6-12l3.1,3.5c0,0-5.2,3.1-10.2,10.6
		c-5.1,7.7-7.6,12.5-7.6,12.6L17.6,34.4z"/>
</g>
<g>
</g>
<g>
</g>
<g>
</g>
<g>
</g>
<g>
</g>
<g>
</g>
</svg>
