<?xml version="1.0" encoding="utf-8"?>
<!-- Generator: Adobe Illustrator 20.1.0, SVG Export Plug-In . SVG Version: 6.00 Build 0)  -->
<svg version="1.1" id="图层_1" xmlns="http://www.w3.org/2000/svg" xmlns:xlink="http://www.w3.org/1999/xlink" x="0px" y="0px"
	 viewBox="0 0 624.8 322.5" style="enable-background:new 0 0 624.8 322.5;" xml:space="preserve">
<style type="text/css">
	.st0{fill:#E8F0EE;}
	.st1{fill:none;stroke:#42B68C;stroke-width:3;stroke-linecap:round;stroke-miterlimit:10;}
	.st2{fill:#42B68C;}
	.st3{fill:#3E3A39;}
	.st4{fill:#E96280;}
</style>
<g>
	<g>
		
			<image style="overflow:visible;opacity:0.1;" width="2655" height="1331" xlink:href="45530154.png"  transform="matrix(0.24 0 0 0.24 -6.0597 1.0538)">
		</image>
		<g>
			<path class="st0" d="M607.4,31.8c0,5.6,4.1,10.3,9.4,11.2v7.1c-5.4,0.9-9.4,5.6-9.4,11.2c0,5.6,4.1,10.3,9.4,11.2v7
				c-5.9,0.4-10.5,5.3-10.5,11.3c0,6,4.6,10.9,10.5,11.3v6.8c-18.4,8.7-31.1,27.4-31.1,49c0,21.7,12.7,40.4,31.1,49v9.5
				c-5.8,0.5-10.4,5.4-10.4,11.3c0,5.9,4.6,10.8,10.4,11.3v6.8c-5.8,0.5-10.4,5.4-10.4,11.3c0,5.9,4.6,10.8,10.4,11.3v6.8h-0.1
				c-6.3,0-11.3,5.1-11.3,11.3c0,6.3,5.1,11.3,11.3,11.3h0.1v5.3H8.2v-6.4c0.2,0,0.3,0,0.5,0c6.3,0,11.3-5.1,11.3-11.3
				c0-6.3-5.1-11.3-11.3-11.3c-0.2,0-0.3,0-0.5,0v-6.8c6-0.3,10.8-5.2,10.8-11.3c0-6.1-4.8-11.1-10.8-11.3V238
				c6-0.3,10.8-5.2,10.8-11.3c0-6.1-4.8-11.1-10.8-11.3v-8c18.9-8.5,32.1-27.4,32.1-49.5c0-22-13.2-41-32.1-49.5V101
				c6.1-0.2,10.9-5.2,10.9-11.3c0-6.1-4.8-11.1-10.9-11.3v-6.9c5.6-0.7,9.9-5.5,9.9-11.3c0-5.8-4.3-10.5-9.9-11.2v-6.9
				c5.6-0.7,9.9-5.5,9.9-11.3c0-5.8-4.3-10.5-9.9-11.2v-7.1h608.6v8.2C611.5,21.5,607.4,26.2,607.4,31.8z"/>
			<path class="st1" d="M607.4,31.8c0,5.6,4.1,10.3,9.4,11.2v7.1c-5.4,0.9-9.4,5.6-9.4,11.2c0,5.6,4.1,10.3,9.4,11.2v7
				c-5.9,0.4-10.5,5.3-10.5,11.3c0,6,4.6,10.9,10.5,11.3v6.8c-18.4,8.7-31.1,27.4-31.1,49c0,21.7,12.7,40.4,31.1,49v9.5
				c-5.8,0.5-10.4,5.4-10.4,11.3c0,5.9,4.6,10.8,10.4,11.3v6.8c-5.8,0.5-10.4,5.4-10.4,11.3c0,5.9,4.6,10.8,10.4,11.3v6.8h-0.1
				c-6.3,0-11.3,5.1-11.3,11.3c0,6.3,5.1,11.3,11.3,11.3h0.1v5.3H8.2v-6.4c0.2,0,0.3,0,0.5,0c6.3,0,11.3-5.1,11.3-11.3
				c0-6.3-5.1-11.3-11.3-11.3c-0.2,0-0.3,0-0.5,0v-6.8c6-0.3,10.8-5.2,10.8-11.3c0-6.1-4.8-11.1-10.8-11.3V238
				c6-0.3,10.8-5.2,10.8-11.3c0-6.1-4.8-11.1-10.8-11.3v-8c18.9-8.5,32.1-27.4,32.1-49.5c0-22-13.2-41-32.1-49.5V101
				c6.1-0.2,10.9-5.2,10.9-11.3c0-6.1-4.8-11.1-10.9-11.3v-6.9c5.6-0.7,9.9-5.5,9.9-11.3c0-5.8-4.3-10.5-9.9-11.2v-6.9
				c5.6-0.7,9.9-5.5,9.9-11.3c0-5.8-4.3-10.5-9.9-11.2v-7.1h608.6v8.2C611.5,21.5,607.4,26.2,607.4,31.8z"/>
		</g>
	</g>
	<path class="st2" d="M607.4,31.8c0,5.6,4.1,10.3,9.4,11.2v7.1c-5.4,0.9-9.4,5.6-9.4,11.2c0,5.6,4.1,10.3,9.4,11.2v4.7H8.2v-5.6
		c5.6-0.7,9.9-5.5,9.9-11.3c0-5.8-4.3-10.5-9.9-11.2v-6.9c5.6-0.7,9.9-5.5,9.9-11.3c0-5.8-4.3-10.5-9.9-11.2v-7.1h608.6v8.2
		C611.5,21.5,607.4,26.2,607.4,31.8z"/>
</g>
<g>
	<path class="st0" d="M60.9,53.7v-3.6H59v-5.9h7.5v6.7c0,2.7,1.4,5.4,5.4,5.4h17.4v5.5H70.8c-3.6,0-5.7-1-6.9-2.9L61,61.5l-3.5-4.6
		L60.9,53.7z M59,27.7h7.1v6.1H59V27.7z M59,35.9h7.1v6.1H59V35.9z M69,28.4h5l-0.4,2.2h1.8v-4h5.8v4h5.1v5.1h-5.1V38h7.1v5.3h-4.3
		v7.9h3.2l1.2-1.1v5.4h-9.7V43.4h-1l-1.8,12.2l-5.5-0.4l2-11.8h-4.1V38h7.2v-2.4h-2.8l-0.3,1.4h-4.9L69,28.4z"/>
	<path class="st0" d="M94.1,32.7h2.4v-6.2h6.2v6.2h1.9v5.5h-1.9v5.2l2.3-0.6v6l-2.3,0.6v12.3h-7.8l1.6-1.8v-8.8l-2.8,0.7v-6.1
		l2.8-0.7v-6.8h-2.4V32.7z M106.3,45.6h5.1v-2.8h6.3c-1.4-0.5-2.6-1-3.7-1.8c-2.6,1.5-5.3,2.6-7.7,3.5l-2.9-4.7
		c2.6-0.8,4.7-1.5,6.4-2.3c-0.8-0.9-1.7-1.9-2.6-3l3.5-2.8h-5.1v-5.1H125c-1,4.8-3.5,8.4-6.5,11.1c2.2,1,4.7,1.4,7.7,1.9l-2,4.5
		c-2.5-0.3-4.7-0.7-6.5-1.4v2.7h6.2v5.1h-6.2v1.6h6.9v5.1h-6.9v4.8h-6.4v-4.8h-5.9v-5.1h5.9v-1.6h-5.1V45.6z M111.8,31.7
		c0.8,1.2,1.6,2.2,2.5,3.1c1.1-0.9,2-1.9,3-3.1H111.8z"/>
	<path class="st0" d="M129.7,26.9h27.7v34.9h-27.7V26.9z M137.1,37h3.9v-3.6h5.2V37h3.9v4.5h-3.4l4.3,7.8V32.6h-14.8v16l3.9-7.1
		h-3.1V37z M146.2,48.7v6.5h-5.2v-6.5l-2.2,5.1l-2.5-1.9V56H151v-4.6l-2.7,1.9L146.2,48.7z"/>
	<path class="st0" d="M164.8,35.8c0.8,1,1.9,2.3,3,3.8c0.3-1.5,0.5-3.1,0.6-4.7h-6.6v-5.6h12.4c0,6.5-0.9,11.8-2.2,16.1
		c1.8,2.7,3.3,5.3,4.2,7.2l-4.6,3.4l-2.2-4.1c-1.5,3-3.1,5.3-4.7,7.1l-4-4c1.6-1.9,3.6-5.1,5.2-9c-1.6-2.3-3.1-4.3-5.2-6.9
		L164.8,35.8z M176.5,43.4l-1.5,3.7l-2.1-3.8l5.1-17.5l5,1.6l-1.8,4.4h3.6v-4.6h5.4v4.6h2.8v5.4h-2.8v3.1h2.7V45h-2.7v3.1h2.7v4.5
		h-2.7v3.1h3.3v6.1h-16.9V43.4z M182,40.4h2.8v-3.1H182V40.4z M182,48.1h2.8V45H182V48.1z M182,55.6h2.8v-3.1H182V55.6z"/>
	<path class="st0" d="M199.2,39.5l-0.7,1.2l-3.5-3.7l6.3-11l4.8,1.2l-1,1.8h7.3l-2.4,7h3.1v25.9h-5.7l0.9-1.8v-4.2h-4.5v6h-4.7V39.5
		z M202.5,33.6l-1.3,2.3h3.3l1.1-2.3H202.5z M203.7,43.8h1v-2.7h-1V43.8z M203.7,50.9h1v-2.7h-1V50.9z M207.8,41.1v2.7h1v-2.7H207.8
		z M208.8,50.9v-2.7h-1v2.7H208.8z M213.3,27.6H227v12.2h-6.1l0.9-1.4v-6h-2l-0.8,7.4h-5l0.8-7.4h-1.6V27.6z M214.1,51.3h5.3v-2.4
		h-1.8l-0.3,1.7h-3.9l1.7-9h3.9l-0.6,3h1v-3.8h5.5v3.8h2.5v4.4h-2.5v2.4h3.1v4.9h-3.1v5.6h-5.5v-5.6h-5.3V51.3z"/>
	<path class="st0" d="M231.7,32.8h5.2v-6.4h6v6.4h4.8v5.3h-4.8V41l3.2-2.5l1.4,2.3l5.1-15l5.1,1.1l-2.2,6h7.6v5.2h-1.4
		c-0.6,5.5-1.8,9.8-3.4,13.4c1.5,2.3,3.3,4.4,5.3,6.3l-3.9,4.4c-1.3-1.4-2.9-3.3-4.4-5.6c-1.4,2.1-3.1,4-4.9,5.9l-4.3-3.9
		c2.3-2.5,4.4-5.1,6.1-8.1c-0.6-1.6-1.1-3.3-1.5-5.1l-1,2.7l-2.8-4.1l-3,2.3l5.5,7.5l-3.6,4.3l-2.9-4.3v7.8h-7.4l1.3-1.8v-6.4
		l-3.2,4.7l-4.1-3.5l7.3-10v-1.8l-2.8,3.7l-4.2-3.3l3.2-4.2l3.7,2.7v-3.7h-5.2V32.8z M243.9,27.1h3.6v4.5h-3.6V27.1z M256.1,38.2
		h-2.5l-0.1,0.2c0.3,2.2,0.8,4.3,1.4,6.2C255.4,42.6,255.9,40.5,256.1,38.2z"/>
	<path class="st0" d="M265.1,47.7c3.2-0.9,5.5-1.7,7.2-2.4h-6v-4.2H278v-2.9h7v2.9h3.6V39h4.9v2.1h3.2v4.2h-5.8
		c3.5,1.5,7.2,2.4,7.2,2.4l-2.2,4.5l-1.9-0.6v10.3h-11.7V50.1h7.6c-5.6-2-8.3-3.4-8.3-3.4c-2.1,1.1-5.5,2.4-8.5,3.4h7.6v11.7H269
		V51.5l-1.8,0.6L265.1,47.7z M268.5,26.9h11.9v10.5h-11.9V26.9z M275.8,33.2v-2.1h-2.7v2.1H275.8z M275.8,56.9v-1.8h-1.9v1.8H275.8z
		 M282.7,26.9h11.9v10.5h-11.9V26.9z M289.1,56.9v-1.8h-1.9v1.8H289.1z M290,33.2v-2.1h-2.7v2.1H290z"/>
</g>
<g>
	<path class="st3" d="M65,253.8c4.1,0,7,3.1,7,7.3c0,4.1-2.8,7.3-7,7.3c-4.2,0-7-3.1-7-7.3C58.1,257,60.9,253.8,65,253.8z M65,255.4
		c-3.2,0-5.2,2.4-5.2,5.7c0,3.3,2,5.7,5.2,5.7c3.1,0,5.2-2.4,5.2-5.7C70.2,257.8,68.2,255.4,65,255.4z"/>
	<path class="st3" d="M74.7,272v-14h1.6v1.5c0.7-1,2-1.8,3.4-1.8c2.7,0,4.5,2,4.5,5.3c0,3.3-1.9,5.3-4.5,5.3c-1.4,0-2.6-0.7-3.4-1.8
		v5.4H74.7z M79.3,259.1c-1.2,0-2.5,0.7-3,1.6v4.6c0.5,0.9,1.8,1.6,3,1.6c2,0,3.3-1.7,3.3-3.9C82.6,260.8,81.3,259.1,79.3,259.1z"/>
	<path class="st3" d="M87.1,266v-6.7h-1.7V258h1.7v-2.8h1.6v2.8h2.1v1.4h-2.1v6.3c0,0.8,0.3,1.3,1,1.3c0.4,0,0.9-0.2,1.1-0.4
		l0.5,1.2c-0.4,0.4-1,0.7-1.9,0.7C87.8,268.4,87.1,267.5,87.1,266z"/>
	<path class="st3" d="M92.7,255.3c0-0.6,0.5-1.1,1.1-1.1c0.6,0,1.1,0.5,1.1,1.1c0,0.6-0.5,1.1-1.1,1.1
		C93.2,256.3,92.7,255.9,92.7,255.3z M93,258h1.6v10.2H93V258z"/>
	<path class="st3" d="M97.1,263c0-2.9,1.9-5.3,5-5.3c3.1,0,5,2.4,5,5.3c0,2.9-1.9,5.3-5,5.3C99,268.4,97.1,266,97.1,263z M105.5,263
		c0-2.1-1.2-3.9-3.4-3.9s-3.4,1.9-3.4,3.9c0,2.1,1.2,3.9,3.4,3.9S105.5,265.1,105.5,263z"/>
	<path class="st3" d="M116.6,261.5c0-1.8-0.9-2.4-2.3-2.4c-1.2,0-2.4,0.8-3,1.6v7.4h-1.6V258h1.6v1.5c0.7-0.8,2.1-1.7,3.6-1.7
		c2.1,0,3.2,1.1,3.2,3.3v7.1h-1.6V261.5z"/>
	<path class="st3" d="M121.4,254.1h9.2v1.6h-7.5v4.5h7.3v1.6h-7.3v6.4h-1.7V254.1z"/>
	<path class="st3" d="M132.3,263c0-2.9,1.9-5.3,5-5.3c3.1,0,5,2.4,5,5.3c0,2.9-1.9,5.3-5,5.3C134.3,268.4,132.3,266,132.3,263z
		 M140.7,263c0-2.1-1.2-3.9-3.4-3.9S134,261,134,263c0,2.1,1.2,3.9,3.4,3.9S140.7,265.1,140.7,263z"/>
	<path class="st3" d="M145,258h1.6v1.6c0.8-1.1,2-1.9,3.4-1.9v1.6c-0.2,0-0.4-0.1-0.6-0.1c-1,0-2.3,0.8-2.8,1.6v7.2H145V258z"/>
	<path class="st3" d="M151,266c0.6,0,1.2,0.5,1.2,1.2c0,0.6-0.5,1.2-1.2,1.2c-0.6,0-1.2-0.5-1.2-1.2C149.8,266.5,150.4,266,151,266z
		"/>
	<path class="st4" d="M167.1,256.4l-4.8,11.7h-0.7l-4.8-11.7v11.7h-1.7v-14h2.5l4.4,10.7l4.4-10.7h2.5v14h-1.7V256.4z"/>
	<path class="st4" d="M176.4,257.7c3.1,0,4.9,2.4,4.9,5.5v0.4h-8.2c0.1,1.9,1.5,3.5,3.7,3.5c1.2,0,2.3-0.5,3.1-1.3l0.8,1
		c-1,1-2.4,1.6-4,1.6c-3,0-5.2-2.2-5.2-5.3C171.4,260.1,173.5,257.7,176.4,257.7z M173.1,262.4h6.7c0-1.5-1-3.4-3.3-3.4
		C174.3,259,173.2,260.8,173.1,262.4z"/>
	<path class="st3" d="M61.4,281.3c-1,0-1.9-0.4-2.6-1.1s-1.1-1.6-1.1-2.6c0-1,0.4-1.9,1.1-2.6c0.7-0.7,1.6-1.1,2.6-1.1
		c1,0,1.9,0.4,2.6,1.1c0.7,0.7,1.1,1.6,1.1,2.6c0,1-0.4,1.9-1.1,2.6C63.3,280.9,62.4,281.3,61.4,281.3z M61.4,274.5
		c-0.9,0-1.6,0.3-2.2,0.9c-0.6,0.6-0.9,1.4-0.9,2.2c0,0.9,0.3,1.6,0.9,2.2s1.4,0.9,2.2,0.9c0.9,0,1.6-0.3,2.2-0.9
		c0.6-0.6,0.9-1.4,0.9-2.2c0-0.9-0.3-1.6-0.9-2.2C63.1,274.8,62.3,274.5,61.4,274.5z M62.9,279.8c-0.4,0.2-0.8,0.3-1.3,0.3
		c-0.7,0-1.2-0.2-1.7-0.7c-0.5-0.5-0.7-1-0.7-1.7c0-0.8,0.2-1.4,0.7-1.9s1.1-0.7,1.8-0.7c0.4,0,0.8,0.1,1.2,0.2v0.9
		c-0.3-0.2-0.7-0.4-1.1-0.4c-0.5,0-0.9,0.2-1.2,0.5s-0.5,0.7-0.5,1.2c0,0.5,0.2,0.9,0.5,1.2c0.3,0.3,0.7,0.5,1.2,0.5
		c0.4,0,0.8-0.1,1.1-0.4V279.8z"/>
	<path class="st3" d="M68.9,277.8c0-2.1,1.5-3.5,3.4-3.5c1.2,0,2,0.6,2.6,1.3l-0.7,0.4c-0.4-0.6-1.1-1-1.9-1c-1.4,0-2.5,1.1-2.5,2.7
		c0,1.6,1.1,2.7,2.5,2.7c0.8,0,1.5-0.4,1.9-1l0.7,0.4c-0.6,0.8-1.4,1.3-2.6,1.3C70.5,281.3,68.9,279.9,68.9,277.8z"/>
	<path class="st3" d="M75.7,278.7c0-1.4,0.9-2.5,2.4-2.5s2.4,1.1,2.4,2.5c0,1.4-0.9,2.5-2.4,2.5S75.7,280.1,75.7,278.7z M79.7,278.7
		c0-1-0.6-1.9-1.6-1.9s-1.6,0.9-1.6,1.9c0,1,0.6,1.9,1.6,1.9S79.7,279.7,79.7,278.7z"/>
	<path class="st3" d="M81.7,283v-6.7h0.8v0.7c0.4-0.5,1-0.8,1.6-0.8c1.3,0,2.2,1,2.2,2.5c0,1.6-0.9,2.5-2.2,2.5
		c-0.7,0-1.2-0.3-1.6-0.9v2.6H81.7z M83.9,276.9c-0.6,0-1.2,0.4-1.4,0.8v2.2c0.3,0.4,0.9,0.8,1.4,0.8c1,0,1.6-0.8,1.6-1.9
		C85.4,277.7,84.9,276.9,83.9,276.9z"/>
	<path class="st3" d="M87.7,282.5c0.3,0,0.6-0.1,0.7-0.5l0.3-0.7l-2-4.9h0.8l1.6,4l1.6-4h0.8l-2.4,5.8c-0.3,0.7-0.8,1-1.4,1
		c-0.2,0-0.4,0-0.6-0.1l0.1-0.7C87.4,282.4,87.6,282.5,87.7,282.5z"/>
	<path class="st3" d="M92.4,276.3h0.8v0.8c0.4-0.5,1-0.9,1.6-0.9v0.8c-0.1,0-0.2,0-0.3,0c-0.5,0-1.1,0.4-1.3,0.8v3.4h-0.8V276.3z"/>
	<path class="st3" d="M95.5,275c0-0.3,0.2-0.5,0.5-0.5c0.3,0,0.5,0.2,0.5,0.5c0,0.3-0.2,0.5-0.5,0.5C95.8,275.5,95.5,275.3,95.5,275
		z M95.7,276.3h0.8v4.8h-0.8V276.3z"/>
	<path class="st3" d="M98.3,281.8c0.4,0.5,0.9,0.7,1.6,0.7c0.8,0,1.6-0.4,1.6-1.5v-0.7c-0.4,0.5-0.9,0.9-1.6,0.9
		c-1.3,0-2.2-0.9-2.2-2.5c0-1.6,0.9-2.5,2.2-2.5c0.7,0,1.2,0.3,1.6,0.9v-0.7h0.8v4.7c0,1.6-1.1,2.1-2.3,2.1c-0.8,0-1.4-0.2-2-0.7
		L98.3,281.8z M101.4,277.7c-0.3-0.4-0.8-0.8-1.4-0.8c-1,0-1.6,0.8-1.6,1.8c0,1.1,0.6,1.8,1.6,1.8c0.6,0,1.2-0.4,1.4-0.8V277.7z"/>
	<path class="st3" d="M107,278c0-0.9-0.4-1.1-1.1-1.1c-0.6,0-1.1,0.4-1.4,0.8v3.5h-0.8v-6.7h0.8v2.5c0.3-0.4,1-0.8,1.7-0.8
		c1,0,1.5,0.5,1.5,1.5v3.4H107V278z"/>
	<path class="st3" d="M109.4,280.1V277h-0.8v-0.7h0.8V275h0.8v1.3h1v0.7h-1v3c0,0.4,0.2,0.6,0.5,0.6c0.2,0,0.4-0.1,0.5-0.2l0.2,0.6
		c-0.2,0.2-0.5,0.3-0.9,0.3C109.7,281.3,109.4,280.9,109.4,280.1z"/>
	<path class="st3" d="M114.8,274.5h2.7c1.3,0,2.1,0.9,2.1,2c0,1.1-0.8,2-2.1,2h-1.9v2.7h-0.8V274.5z M117.4,275.2h-1.8v2.5h1.8
		c0.8,0,1.3-0.5,1.3-1.3C118.7,275.7,118.2,275.2,117.4,275.2z"/>
	<path class="st3" d="M123.5,280.6c-0.4,0.4-1,0.7-1.6,0.7c-0.8,0-1.7-0.6-1.7-1.6c0-1.1,0.9-1.6,1.7-1.6c0.7,0,1.2,0.2,1.6,0.7
		v-0.9c0-0.7-0.5-1-1.2-1c-0.6,0-1.1,0.2-1.5,0.7l-0.4-0.5c0.5-0.5,1.1-0.8,1.9-0.8c1,0,1.9,0.5,1.9,1.6v3.3h-0.8V280.6z
		 M123.5,279.2c-0.3-0.4-0.8-0.6-1.3-0.6c-0.7,0-1.2,0.4-1.2,1.1c0,0.6,0.5,1.1,1.2,1.1c0.5,0,1-0.2,1.3-0.6V279.2z"/>
	<path class="st3" d="M129,278c0-0.9-0.4-1.1-1.1-1.1c-0.6,0-1.2,0.4-1.4,0.8v3.5h-0.8v-4.8h0.8v0.7c0.3-0.4,1-0.8,1.7-0.8
		c1,0,1.5,0.5,1.5,1.6v3.4H129V278z"/>
	<path class="st3" d="M131.3,276.3h0.8v0.8c0.4-0.5,1-0.9,1.6-0.9v0.8c-0.1,0-0.2,0-0.3,0c-0.5,0-1.1,0.4-1.3,0.8v3.4h-0.8V276.3z"
		/>
	<path class="st3" d="M134.3,278.7c0-1.4,0.9-2.5,2.4-2.5s2.4,1.1,2.4,2.5c0,1.4-0.9,2.5-2.4,2.5S134.3,280.1,134.3,278.7z
		 M138.3,278.7c0-1-0.6-1.9-1.6-1.9s-1.6,0.9-1.6,1.9c0,1,0.6,1.9,1.6,1.9S138.3,279.7,138.3,278.7z"/>
	<path class="st3" d="M142.7,280.5c2.4-1.9,3.7-3,3.7-4.2c0-0.9-0.7-1.2-1.4-1.2c-0.8,0-1.4,0.3-1.8,0.8l-0.5-0.5
		c0.5-0.7,1.4-1.1,2.3-1.1c1.1,0,2.2,0.6,2.2,2c0,1.4-1.4,2.6-3.2,4.1h3.3v0.7h-4.6V280.5z"/>
	<path class="st3" d="M151.1,274.4c1.8,0,2.6,1.8,2.6,3.4c0,1.6-0.7,3.5-2.6,3.5c-1.8,0-2.6-1.8-2.6-3.5
		C148.5,276.2,149.3,274.4,151.1,274.4z M151.1,275.1c-1.3,0-1.7,1.4-1.7,2.7s0.4,2.7,1.7,2.7c1.3,0,1.7-1.4,1.7-2.7
		S152.4,275.1,151.1,275.1z"/>
	<path class="st3" d="M155.9,275.6l-1.1,1.1l-0.5-0.5l1.7-1.7h0.7v6.7h-0.8V275.6z"/>
	<path class="st3" d="M160.8,274.4c0.9,0,1.4,0.3,1.9,0.8l-0.4,0.6c-0.3-0.4-0.7-0.7-1.4-0.7c-1.3,0-1.9,1.3-1.9,2.6
		c0,0.1,0,0.2,0,0.3c0.3-0.5,1-1,1.9-1c1.2,0,2.2,0.7,2.2,2.1c0,1.2-0.9,2.2-2.3,2.2c-1.9,0-2.6-1.6-2.6-3.4
		C158.1,276,158.9,274.4,160.8,274.4z M160.6,277.7c-0.7,0-1.3,0.4-1.7,1c0.1,0.8,0.5,1.9,1.7,1.9c1,0,1.5-0.8,1.5-1.4
		C162.2,278.1,161.5,277.7,160.6,277.7z"/>
</g>
<g>
	<path d="M61.1,118.9c-0.2,2-0.6,3.7-1.4,5.2l-0.7-0.7c0.8-1.5,1.2-3.5,1.3-5.9v-6.7l-0.5,0.5l-0.7-0.8c1.3-1.4,2.3-3.2,3-5.3l1,0.2
		c-0.2,0.6-0.4,1.1-0.6,1.5h3.8v0.8c-0.5,1-1,1.9-1.5,2.6h2.6v12.2c0,0.9-0.5,1.4-1.3,1.4h-1.3l-0.2-0.9c0.6,0,1,0,1.2,0
		c0.5,0,0.7-0.3,0.7-0.8v-3.1h-2.2v4.8h-0.9v-4.8H61.1z M63.7,110.2c0.5-0.7,1-1.5,1.5-2.4h-3.1c-0.4,0.8-0.9,1.6-1.5,2.4H63.7z
		 M61.2,115v2.6l0,0.3h2.2V115H61.2z M63.3,111.2h-2.1v2.8h2.1V111.2z M66.5,114v-2.8h-2.2v2.8H66.5z M66.5,117.9V115h-2.2v2.9H66.5
		z M70.1,116c-0.4,0.8-0.8,1.4-1.3,2l-0.7-0.8c0.9-1,1.5-2.3,1.8-4l0.9,0.2c-0.1,0.6-0.3,1.2-0.4,1.6h2.2v-2h1.1v2H77v1h-3.2v2.8
		h3.7v1h-3.7v4.1h-1.1v-4.1h-4.5v-1h4.5V116H70.1z M68.3,107.5v-1h8.3c0,2.6-0.2,4.2-0.5,4.8c-0.3,0.5-0.9,0.8-1.8,0.8
		c-0.2,0-0.8,0-1.7,0l-0.3-1c0.1,0,0.7,0,1.7,0.1c0.6,0,1-0.2,1.2-0.6c0.1-0.4,0.2-1.4,0.3-3.1h-3.4c-0.2,1-0.5,1.9-0.9,2.6
		c-0.5,0.8-1.3,1.6-2.3,2.3l-0.7-0.8c1-0.6,1.7-1.3,2.1-2.1c0.3-0.6,0.6-1.3,0.7-2H68.3z"/>
	<path d="M85,122.4c0,0.9-0.5,1.4-1.5,1.4h-1.9l-0.2-1.1c0.8,0.1,1.4,0.1,1.8,0.1c0.5,0,0.8-0.2,0.8-0.7v-5.2
		c-1.2,1.5-2.6,2.9-4.2,4.1l-0.4-1c1.8-1.2,3.3-2.6,4.7-4.3V110h-4.3v-1.1h4.3v-3.6H85v3.6h3.8v1.1H85v5.9c1.5,1.2,3,2.4,4.5,3.8
		l-0.6,0.9c-1.5-1.5-2.7-2.7-3.9-3.6V122.4z M80.7,111.9c1,1.4,1.7,2.5,2.1,3.4l-0.8,0.6c-0.5-1-1.2-2.1-2.2-3.4L80.7,111.9z
		 M88.5,111.9c-0.5,1.3-1.1,2.5-1.7,3.5l-0.8-0.6c0.6-1,1.2-2.2,1.6-3.4L88.5,111.9z M86.8,105.2c1,0.7,1.8,1.4,2.4,2.1l-0.7,0.7
		c-0.6-0.7-1.4-1.4-2.4-2.2L86.8,105.2z M89.7,115l-0.7-0.9c1.2-2.2,2.1-5.3,2.5-9.1l1.1,0.2c-0.2,1.4-0.4,2.5-0.5,3.2h5.6v1.1h-1.4
		c-0.1,3.5-0.7,6.5-2,8.9c1.1,1.9,2.4,3.4,3.9,4.4l-0.7,1c-1.5-1.1-2.7-2.5-3.8-4.3c-1.1,1.8-2.5,3.3-4.2,4.4l-0.6-1
		c1.8-1.2,3.2-2.7,4.3-4.5c-0.9-1.7-1.6-3.7-2.1-5.9C90.6,113.5,90.1,114.3,89.7,115z M91.8,109.5l-0.3,1.3c0.5,2.5,1.2,4.7,2.1,6.5
		c1-2.2,1.5-4.8,1.6-7.8H91.8z"/>
	<path d="M100.1,113.1h7c0.4-0.6,0.8-1.2,1-1.8l1,0.1c-0.2,0.5-0.5,1.1-0.9,1.7h5.8c-0.4-0.6-0.7-1.1-1-1.6l1-0.3
		c0.5,0.6,0.9,1.2,1.2,1.9h2.9v1h-5.9c1.3,1.4,3.5,2.6,6.3,3.4l-0.4,0.9c-0.4-0.1-1-0.4-1.7-0.6v6.1h-1v-1h-4.2v1h-1v-6.3h5.8
		c-2.2-1-3.8-2.1-4.9-3.5h-3.6c-1.2,1.4-2.9,2.6-5,3.5h5.5v6.3h-1v-1h-3.9v1h-1v-6.1c-0.6,0.2-1.2,0.5-1.9,0.7l-0.5-0.9
		c2.8-0.9,5-2,6.5-3.4h-6V113.1z M101.8,106.1h6v4.7h-6V106.1z M106.8,109.8V107h-3.9v2.8H106.8z M103.1,122h3.9v-3.4h-3.9V122z
		 M110.4,106.1h6.1v4.7h-6.1V106.1z M111.2,122h4.2v-3.4h-4.2V122z M115.4,109.8V107h-4v2.8H115.4z"/>
	<path d="M121.6,109.3h3.8v-1.8h-4.1v-1h4.1v-1.3h1.1v1.3h3.8v1h-3.8v1.8h3.2v1h-3.2c0,0.7-0.1,1.2-0.2,1.8h4v1h-4.3
		c-0.2,0.4-0.4,0.8-0.6,1.2c-0.7,1-2,1.8-3.7,2.4l-0.6-0.9c1.6-0.5,2.8-1.3,3.5-2.2l0.3-0.5h-4.1v-1h4.4c0.1-0.5,0.2-1.1,0.3-1.8
		h-3.7V109.3z M129.2,115.2h1.1v2h6.5v4c0,1-0.5,1.5-1.6,1.5h-1.7l-0.3-1l1.7,0c0.6,0,0.9-0.3,0.9-0.8v-2.7h-5.4v5.8h-1.1v-5.8h-5.3
		v4.5h-1.1v-5.5h6.4V115.2z M131.5,106.2h6.4v0.8c-0.5,1.1-1.1,2.2-1.8,3.2c1.2,1,1.8,1.9,1.8,2.6c0,1-0.6,1.7-1.6,1.9
		c-0.5,0.1-1.2,0.2-2.1,0.2l-0.4-1c0.3,0,0.6,0.1,0.8,0.1c1.4,0,2.1-0.4,2.1-1.2c0-0.6-0.6-1.5-1.9-2.6c0.7-1,1.3-1.9,1.8-2.9h-4.1
		v8.5h-1.1V106.2z"/>
	<path d="M143.4,112c-0.7,1-1.5,2-2.5,3.1l-0.4-1.2c2.3-2.6,3.9-5.6,4.9-8.8l1,0.5c-0.5,1.6-1.2,3.1-2,4.6v13.6h-1.1V112z
		 M149.2,108.9c-0.7,1.6-1.5,3.1-2.4,4.5l-0.9-0.6c1.6-2.3,2.7-4.8,3.5-7.7l1.1,0.2c-0.2,0.9-0.5,1.7-0.8,2.5h8.8v0.7
		c-0.3,1.3-0.8,2.5-1.3,3.8L156,112c0.5-0.9,0.9-1.9,1.3-3.1H149.2z M150,113.8c-0.8,2.9-1.8,5.4-2.9,7.6l-1.1-0.4
		c1.1-1.9,2.1-4.4,3-7.4L150,113.8z M149.2,123.7l-0.2-1c1.2,0.1,2.1,0.1,2.6,0.1c0.5,0,0.8-0.3,0.8-0.8v-11.1h1.1v11.4
		c0,1-0.5,1.5-1.5,1.5H149.2z M156,113.3c1.1,2.4,2.1,5,2.9,7.9l-1,0.4c-0.9-3-1.8-5.7-2.9-8L156,113.3z"/>
	<path d="M174.8,123.5c-0.7,0-1.9,0-3.7,0c-1.3,0-2.4-0.2-3.2-0.4c-0.8-0.2-1.6-0.7-2.2-1.5c-0.3-0.4-0.5-0.5-0.8-0.5
		c-0.6,0-1.4,0.9-2.6,2.8l-0.8-0.8c1.2-1.8,2.1-2.8,3-3.1v-6.5h-3v-1.1h4.1v7.6c0.2,0.1,0.5,0.3,0.7,0.6c0.5,0.6,1.1,1.1,1.7,1.3
		c0.7,0.2,1.6,0.4,2.8,0.4c1.4,0,2.7,0,4,0h2.8l2.2-0.1l-0.3,1.1H174.8z M162.6,105.6c1.5,1.1,2.6,2.2,3.5,3.2l-0.8,0.8
		c-0.8-1-2-2.1-3.5-3.2L162.6,105.6z M173.1,105.2h1.1v2.7h4.1v1.1h-4.1v3.2h4.9v1.1h-3.5v5.9c0,0.3,0.2,0.5,0.6,0.5h1
		c0.3,0,0.6-0.1,0.8-0.2c0.3-0.2,0.5-1,0.6-2.5l1,0.3c-0.1,1.6-0.3,2.6-0.7,2.9c-0.3,0.3-0.8,0.4-1.5,0.4h-1.5c-0.4,0-0.8-0.1-1-0.4
		c-0.2-0.2-0.3-0.5-0.3-0.9v-6.1h-2.3c0,1.5-0.2,2.7-0.6,3.8c-0.5,1.5-1.8,2.8-3.7,3.8l-0.7-0.9c1.6-0.8,2.8-1.9,3.4-3.2
		c0.4-1,0.6-2.2,0.6-3.6h-3.4v-1.1h5.2V109h-3.6c-0.4,0.8-0.8,1.5-1.3,2.2l-0.9-0.6c1-1.5,1.8-3.2,2.4-5.2l1,0.2
		c-0.2,0.8-0.5,1.6-0.7,2.2h3.1V105.2z"/>
	<path d="M182.2,123.7l-0.2-1.1c0.8,0.1,1.3,0.1,1.6,0.1c0.6,0,0.9-0.3,0.9-0.9v-5.4c-1,0.3-1.8,0.6-2.7,0.9l-0.3-1.1
		c1-0.2,2-0.5,2.9-0.9v-5h-2.7v-1.1h2.7v-4h1.1v4h2.5v1.1h-2.5v4.6c0.8-0.3,1.6-0.7,2.5-1.2v1.1c-0.8,0.4-1.6,0.8-2.5,1.1v6.1
		c0,1.1-0.5,1.6-1.6,1.6H182.2z M189.5,115.6h4.2v-2h1.1v2h4.2v1h-4.2v2.7h5.2v1.1h-5.2v3.4h-1.1v-3.4h-5.3v-1.1h5.3v-2.7h-4.2
		V115.6z M189.2,106.1h9.5v1c-0.6,1.6-1.8,3-3.5,4.2c1.4,0.7,3.1,1.2,5.1,1.5l-0.4,1c-2.3-0.4-4.2-1-5.7-1.8c-1.4,0.8-3.2,1.4-5.2,2
		l-0.6-0.9c1.9-0.5,3.5-1,4.8-1.7c-1.4-1.1-2.5-2.4-3.1-4.1h-1V106.1z M191.2,107.1c0.6,1.4,1.6,2.6,3,3.5c1.6-1,2.7-2.1,3.4-3.5
		H191.2z"/>
	<path d="M211.1,112.1c2.1-1.3,4.2-2.7,6.1-4.4h-13.7v-1.1h15.2v1.1c-1.9,1.7-4,3.4-6.5,5v9.5c0,1.1-0.6,1.6-1.7,1.6
		c-1,0-2,0-3.2-0.1l-0.3-1.1c1,0.1,2.1,0.1,3.2,0.1c0.6,0,0.9-0.3,0.9-0.8V112.1z"/>
</g>
<g>
	<g>
		<path class="st3" d="M58,227.1H63c0.3-0.5,0.6-1.1,0.9-1.6l0.8,0.1c-0.2,0.5-0.5,1-0.8,1.5h7.2v0.8h-7.7c-0.5,0.8-1.1,1.5-1.9,2.1
			h3.3v-1.5h0.8v1.5h4v3.5c0,0.9-0.4,1.4-1.2,1.4h-1.2l-0.2-0.8l1.2,0c0.5,0,0.7-0.3,0.7-0.8v-2.6h-3.2v4.9h-0.8v-4.9h-2.9v4.3h-0.8
			v-4.6c-0.8,0.7-1.8,1.4-2.9,2l-0.5-0.6c2-1.1,3.5-2.5,4.7-3.9H58V227.1z M69.2,222.2c-1,0.6-2,1.2-3.1,1.7c1.3,0.5,2.5,1,3.8,1.6
			l-0.5,0.7c-1.5-0.7-2.9-1.3-4.3-1.8c-1.5,0.6-3.3,1.2-5.5,1.7l-0.5-0.7c1.8-0.4,3.5-0.8,4.9-1.4c-1.3-0.4-2.6-0.9-4.2-1.2l0.4-0.6
			c1.7,0.4,3.3,0.9,4.8,1.5c1.3-0.5,2.4-1.1,3.4-1.8L69.2,222.2z"/>
		<path class="st3" d="M73.1,223.5H76c-0.2-0.6-0.3-1.2-0.5-1.6l0.8-0.2c0.2,0.6,0.3,1.2,0.5,1.8h2.6v0.7h-4.1v3.5
			c1.4-0.3,2.6-0.6,3.6-1l0.2,0.7c-1.3,0.5-2.9,0.9-4.7,1.2l-0.2-0.6c0.3-0.1,0.4-0.3,0.4-0.6v-3.3h-1.4V223.5z M79.2,230.5h-5.3
			v-0.7h11.3v0.7h-5.3v1.6h4.5v0.7h-4.5v1.6h5.9v0.8H73.2v-0.8h5.9v-1.6h-4.5v-0.7h4.5V230.5z M81,226.9c-0.2,0.9-0.7,1.6-1.3,2.3
			l-0.6-0.5c0.9-0.8,1.3-1.9,1.3-3.2v-2.9h4.9v5.5c0,0.7-0.3,1-1,1h-1.5l-0.2-0.7c0.5,0,1,0,1.5,0c0.3,0,0.5-0.2,0.5-0.6v-0.8H81z
			 M81.2,225v0.3c0,0.2,0,0.5-0.1,0.9h3.4V225H81.2z M84.5,224.4v-1.2h-3.3v1.2H84.5z"/>
		<path class="st3" d="M92,222.2h0.8v4.5h2.5v0.8h-2.5v5.5c1-0.3,1.9-0.5,2.5-0.8v0.8c-2.2,0.7-4.7,1.3-7.6,1.8l-0.1-0.8
			c0.6-0.1,1.1-0.2,1.4-0.2v-9.1h0.8v8.9c0.8-0.2,1.5-0.3,2.2-0.5V222.2z M101.3,225.4c-1.2,1-2.7,1.8-4.3,2.5v5.5
			c0,0.6,0.3,0.8,0.8,0.8h1.2c0.5,0,0.8-0.1,1-0.4c0.3-0.3,0.4-1.3,0.5-2.9l0.8,0.2c-0.1,1.8-0.4,2.9-0.7,3.4
			c-0.3,0.3-0.7,0.5-1.4,0.5h-1.6c-0.9,0-1.4-0.5-1.4-1.4V222H97v5.1c1.4-0.6,2.6-1.4,3.8-2.3L101.3,225.4z"/>
		<path class="st3" d="M107.6,223v11h-0.8v-1.1h-2.5v1.4h-0.8V223H107.6z M104.3,227.5h2.5v-3.7h-2.5V227.5z M104.3,232.1h2.5v-3.9
			h-2.5V232.1z M110.6,235.4l-0.2-0.8c1.2,0,2,0.1,2.5,0.1c0.5,0,0.8-0.3,0.8-0.8v-8.4h-5.4v-0.8h5.4v-2.7h0.8v2.7h2v0.8h-2v8.6
			c0,0.9-0.4,1.3-1.3,1.3H110.6z M109.7,227.4c0.9,1.4,1.7,2.6,2.2,3.7l-0.7,0.5c-0.5-1.1-1.3-2.4-2.2-3.8L109.7,227.4z"/>
		<path class="st3" d="M123.1,224.5v10.1h-0.8v-0.9h-3v1.3h-0.8v-10.5h1.4c0.3-0.9,0.5-1.7,0.7-2.7l0.8,0.1
			c-0.2,0.9-0.4,1.8-0.7,2.6H123.1z M119.3,228.6h3v-3.4h-3V228.6z M119.3,232.9h3v-3.6h-3V232.9z M130.9,224.5c0,4.8-0.1,7.8-0.2,9
			c-0.2,1.2-0.8,1.8-2.1,1.8l-1.5,0l-0.2-0.8c0.6,0,1.1,0,1.6,0c0.8,0,1.3-0.4,1.4-1.3c0.1-0.8,0.2-3.5,0.2-7.9h-4.4
			c-0.4,1-0.9,1.9-1.5,2.6l-0.5-0.6c1.1-1.5,1.8-3.3,2.2-5.5l0.8,0.1c-0.2,1-0.4,1.9-0.7,2.6H130.9z M125.7,227.9
			c1.2,1.3,2,2.4,2.6,3.3l-0.6,0.5c-0.6-1-1.5-2.1-2.6-3.4L125.7,227.9z"/>
		<path class="st3" d="M134.8,226.8c-0.5,0.7-1.1,1.5-1.8,2.3l-0.3-0.9c1.7-1.9,2.9-4.1,3.6-6.5l0.8,0.3c-0.4,1.2-0.9,2.3-1.5,3.4
			v10h-0.8V226.8z M139.1,224.5c-0.5,1.2-1.1,2.3-1.7,3.3l-0.7-0.4c1.2-1.7,2-3.5,2.5-5.7l0.8,0.2c-0.2,0.6-0.4,1.3-0.6,1.9h6.5v0.5
			c-0.2,0.9-0.6,1.9-1,2.8l-0.8-0.2c0.4-0.7,0.7-1.4,0.9-2.3H139.1z M139.7,228.1c-0.6,2.1-1.3,4-2.2,5.6l-0.8-0.3
			c0.8-1.4,1.6-3.3,2.2-5.5L139.7,228.1z M139.1,235.4l-0.2-0.8c0.9,0,1.5,0.1,1.9,0.1c0.4,0,0.6-0.2,0.6-0.6v-8.2h0.8v8.4
			c0,0.7-0.4,1.1-1.1,1.1H139.1z M144.2,227.8c0.8,1.8,1.5,3.7,2.1,5.8l-0.7,0.3c-0.6-2.2-1.3-4.2-2.1-5.9L144.2,227.8z"/>
		<path class="st3" d="M150.5,226.8c-0.4,2.5-1,4.7-1.9,6.5l-0.7-0.5c0.8-1.8,1.4-3.9,1.8-6.2L150.5,226.8z M153.3,235
			c-1,0-1.4-0.5-1.4-1.4V225h0.8v8.5c0,0.5,0.3,0.7,0.8,0.7h3c0.4,0,0.7-0.1,0.9-0.4c0.2-0.4,0.4-1.5,0.4-3.3l0.8,0.3
			c-0.1,2-0.3,3.2-0.6,3.7c-0.3,0.4-0.7,0.6-1.3,0.6H153.3z M153.6,221.9c1.4,1.4,2.5,2.7,3.3,3.7l-0.7,0.5
			c-0.8-1.1-1.9-2.4-3.3-3.8L153.6,221.9z M159,226.1c1,2,1.9,4,2.7,6.1l-0.8,0.3c-0.8-2.3-1.7-4.3-2.7-6.2L159,226.1z"/>
		<path class="st3" d="M169.4,229.3h-4.8v-6.8h10.3v6.8h-4.7v2h5.5v0.8h-5.5v2.1h6.2v0.8h-13.2v-0.8h6.2V232h-5.5v-0.8h5.5V229.3z
			 M169.4,223.2h-4v2.3h4V223.2z M165.4,226.2v2.3h4v-2.3H165.4z M174.1,225.5v-2.3h-3.9v2.3H174.1z M170.2,228.5h3.9v-2.3h-3.9
			V228.5z"/>
		<path class="st3" d="M184.7,221.7h0.8v3.7l4.5-1c0,2.9,0,4.6-0.1,5.3c-0.1,1-0.8,1.5-1.9,1.5h-0.7l-0.2-0.8l1.1,0
			c0.6,0,0.9-0.4,1-1.3c0-0.4,0.1-1.7,0.1-3.8l-3.7,0.8v5.6h-0.8v-5.5l-3.5,0.8v5.8c0,0.8,0.4,1.2,1.1,1.2h6.6
			c0.6,0,1.1-0.1,1.3-0.3c0.3-0.3,0.4-1.1,0.5-2.5l0.8,0.3c-0.1,1.6-0.3,2.6-0.7,2.9c-0.3,0.3-0.9,0.5-1.8,0.5h-7
			c-1.2,0-1.7-0.6-1.7-1.9v-5.8l-2.5,0.5v-0.8l2.5-0.6v-3.6h0.8v3.4l3.5-0.8V221.7z"/>
		<path class="st3" d="M203.7,232.2h-6.3v3.3h-0.8v-8.2c-0.9,1.2-2,2.2-3.2,3.2l-0.5-0.7c2-1.6,3.5-3.4,4.6-5.5h-4.2v-0.8h4.6
			c0.3-0.6,0.5-1.2,0.7-1.8l0.8,0.1c-0.2,0.6-0.4,1.2-0.6,1.8h7.6v0.8h-8c-0.3,0.7-0.7,1.4-1.1,2h7.1v8.1c0,0.7-0.4,1-1.1,1h-1.7
			l-0.2-0.7c0.8,0,1.3,0,1.6,0c0.4,0,0.6-0.2,0.6-0.5V232.2z M197.5,227.1v1.9h6.3v-1.9H197.5z M203.7,229.7h-6.3v1.8h6.3V229.7z"/>
		<path class="st3" d="M214.8,226.8c1.6-0.9,3.1-2,4.5-3.3h-10.1v-0.8h11.2v0.8c-1.4,1.3-3,2.5-4.8,3.7v7c0,0.8-0.4,1.2-1.3,1.2
			c-0.7,0-1.5,0-2.4-0.1l-0.2-0.8c0.7,0.1,1.5,0.1,2.4,0.1c0.5,0,0.7-0.2,0.7-0.6V226.8z"/>
		<path class="st3" d="M226.5,228.6c-0.9,0.5-1.9,1-2.9,1.4l-0.4-0.7c2.6-1,4.7-2.3,6.5-3.8h0.5c1.9,1.6,4.1,2.8,6.6,3.7l-0.4,0.7
			c-1.1-0.4-2.1-0.9-3-1.4v0.7h-6.9V228.6z M225.3,223.9c-0.4,0.8-0.9,1.4-1.3,2l-0.7-0.5c1-1.1,1.7-2.4,2.1-3.8l0.8,0.2
			c-0.1,0.4-0.3,0.8-0.5,1.4h4.3v0.8h-2.3c0.3,0.5,0.6,1.1,0.8,1.5l-0.8,0.3c-0.3-0.7-0.6-1.3-0.9-1.8H225.3z M234.3,230.9v4.6h-0.8
			v-0.8h-7.2v0.8h-0.8v-4.6H234.3z M226.4,234h7.2v-2.3h-7.2V234z M233.3,228.5c-1.2-0.7-2.4-1.5-3.4-2.4c-0.9,0.8-2,1.6-3.3,2.4
			H233.3z M231.5,223.9c-0.3,0.5-0.6,1-0.9,1.4l-0.7-0.4c0.8-1,1.4-2,1.7-3.2l0.8,0.2c-0.1,0.4-0.3,0.9-0.5,1.3h4.7v0.8h-2.6
			c0.4,0.6,0.8,1.2,1,1.7l-0.7,0.3c-0.3-0.7-0.7-1.4-1.1-2H231.5z"/>
		<path class="st3" d="M238.6,230.8h6v-1.2h0.8v1.2h6v0.7h-5.2c1.1,1.2,2.9,2.1,5.4,2.7l-0.3,0.7c-2.7-0.9-4.7-2-5.8-3.4h0v4h-0.8
			v-4h-0.1c-1,1.4-2.8,2.5-5.7,3.5l-0.4-0.7c2.7-0.8,4.5-1.8,5.4-2.8h-5.2V230.8z M244,224.2l0.8,0.2c-0.3,0.5-0.6,0.9-0.9,1.2h7.1
			v0.7h-2.6c-0.6,0.8-1.2,1.4-1.9,1.9c1.4,0.4,2.8,0.8,4.3,1.3l-0.5,0.6c-1.5-0.6-3-1-4.6-1.4c-1.6,0.8-3.7,1.2-6.3,1.2l-0.5-0.7
			c2.4,0,4.3-0.3,5.7-0.8c-1-0.3-2.1-0.5-3.3-0.7c0.5-0.6,0.9-1.1,1.1-1.4h-3.4v-0.7h3.9L244,224.2z M251,223.1v2h-0.8v-1.3h-10.4
			v1.3H239v-2h5.7c-0.2-0.4-0.4-0.8-0.7-1.1l0.8-0.1c0.2,0.4,0.5,0.8,0.7,1.3H251z M247.5,226.2h-4.2c-0.3,0.3-0.5,0.7-0.8,1
			c1.1,0.2,2.1,0.4,3,0.7C246.4,227.4,247,226.9,247.5,226.2z"/>
		<path class="st3" d="M257.6,232.5c0.4,0.3,0.5,0.8,0.5,1.3c0,0.5-0.2,0.9-0.5,1.3c-0.4,0.3-0.8,0.5-1.3,0.5c-0.5,0-1-0.2-1.3-0.5
			c-0.4-0.4-0.5-0.8-0.5-1.3c0-0.5,0.2-1,0.5-1.3c0.4-0.3,0.8-0.5,1.3-0.5C256.8,232,257.2,232.2,257.6,232.5z M255.4,233
			c-0.2,0.2-0.4,0.5-0.4,0.8c0,0.3,0.1,0.6,0.4,0.8c0.2,0.2,0.5,0.3,0.9,0.3c0.3,0,0.6-0.1,0.9-0.3c0.2-0.2,0.4-0.5,0.4-0.8
			c0-0.3-0.1-0.6-0.4-0.8c-0.2-0.2-0.5-0.3-0.9-0.3C255.9,232.6,255.6,232.8,255.4,233z"/>
	</g>
</g>
<rect x="58" y="245.3" class="st2" width="270.7" height="1.3"/>
<g>
</g>
<g>
</g>
<g>
</g>
<g>
</g>
<g>
</g>
<g>
</g>
</svg>
